# xmcd
#
# Track frame offsets:
#	150
#	13938
#	29641
#	43602
#	59711
#	71229
#	84573
#	99556
#	116008
#	132955
#	149352
#	163528
#	181262
#	201798
#	218878
#	238144
#	249318
#	266844
#	272227
#	291547
#	295867
#
# Disc length: 4096 seconds
#
# Revision: 0
# Processed by: cddbd v1.5.1PL0 Copyright (c) Steve Scherf et al.
# Submitted via: dBpowerAMP V4.0
#
DISCID=580ffe15
DTITLE=Mississipi John Hurt - Best of - Live at Oberlin College April 15 1965
DYEAR=1965
DGENRE=Blues
TTITLE0=Here am I, Oh Lord send me
TTITLE1=I shall not be moved
TTITLE2=Nearer my God to thee
TTITLE3=Baby what's wrong with you
TTITLE4=It ain't nobody's buisness
TTITLE5=Salty dog blues
TTITLE6=Coffee blues
TTITLE7=Avallon, my home town
TTITLE8=Make me a pallet on the floor
TTITLE9=Since I've laid this burden down
TTITLE10=Slinding delta
TTITLE11=Monday morning blues
TTITLE12=Richland woman blues
TTITLE13=Candy man
TTITLE14=Stagolee
TTITLE15=My creole belle
TTITLE16=C. C. Rider
TTITLE17=Spanish fandango
TTITLE18=Talking Casey
TTITLE19=Chicken
TTITLE20=You are my sunshine
EXTD=
EXTT0=
EXTT1=
EXTT2=
EXTT3=
EXTT4=
EXTT5=
EXTT6=
EXTT7=
EXTT8=
EXTT9=
EXTT10=
EXTT11=
EXTT12=
EXTT13=
EXTT14=
EXTT15=
EXTT16=
EXTT17=
EXTT18=
EXTT19=
EXTT20=
PLAYORDER=
